<?xml version="1.0"?>
<svg xmlns="http://www.w3.org/2000/svg" id="Filled" viewBox="0 0 512 512" width="512" height="512"><path d="M152,56h0a0,0,0,0,1,0,0V168a0,0,0,0,1,0,0H104a0,0,0,0,1,0,0V104a48,48,0,0,1,48-48Z" style="fill:#eba72e"/><path d="M360,56h48a0,0,0,0,1,0,0V168a0,0,0,0,1,0,0h0a48,48,0,0,1-48-48V56A0,0,0,0,1,360,56Z" transform="translate(768 224) rotate(-180)" style="fill:#eba72e"/><circle cx="136" cy="200" r="48" style="fill:#f0c6a4"/><circle cx="376" cy="200" r="48" style="fill:#f0c6a4"/><path d="M384,376H304V328H208v48H128a64,64,0,0,0-64,64v48H448V440A64,64,0,0,0,384,376Z" style="fill:#60b8d1"/><path d="M160,384H128V304h16a16,16,0,0,1,16,16Z" style="fill:#e0b999"/><path d="M92.35,242.94A16.014,16.014,0,0,1,107.53,232H128l-16,48v32l48,64V488H96V392L80,344V280Z" style="fill:#f7cca9"/><path d="M352,384h32V304H368a16,16,0,0,0-16,16Z" style="fill:#e0b999"/><path d="M419.65,242.94A16.014,16.014,0,0,0,404.47,232H384l16,48v32l-48,64V488h64V392l16-48V280Z" style="fill:#f7cca9"/><path d="M312,328H200a64,64,0,0,1-64-64V72H376V264A64,64,0,0,1,312,328Z" style="fill:#f7cca9"/><path d="M376,56V88H152c-.6,0-1.21-.01-1.81-.03q-1.86-.045-3.69-.21A63.989,63.989,0,0,1,88,24H344A32,32,0,0,1,376,56Z" style="fill:#ffb632"/><circle cx="200" cy="192" r="16" style="fill:#596063"/><circle cx="312" cy="192" r="16" style="fill:#596063"/><path d="M304,328v48a32,32,0,0,1-32,32H240a32,32,0,0,1-32-32V328Z" style="fill:#f0c6a4"/><circle cx="256" cy="424" r="64" style="fill:#eb423f"/><path d="M427.546,382.659,439.59,346.53A8.032,8.032,0,0,0,440,344V280a8.021,8.021,0,0,0-.41-2.529l-12.352-37.066a23.976,23.976,0,0,0-5.117-8.651A55.915,55.915,0,0,0,416,160.861V104a56.111,56.111,0,0,0-32.1-50.645A40.046,40.046,0,0,0,344,16H88a8,8,0,0,0-8,8,71.8,71.8,0,0,0,23.074,52.759A55.924,55.924,0,0,0,96,104v56.861a55.914,55.914,0,0,0-6.12,70.894,23.982,23.982,0,0,0-5.12,8.655L72.41,277.471A8.021,8.021,0,0,0,72,280v64a8.032,8.032,0,0,0,.41,2.53l12.044,36.129A71.59,71.59,0,0,0,56,440v48a8,8,0,0,0,8,8H448a8,8,0,0,0,8-8V440A71.59,71.59,0,0,0,427.546,382.659ZM424,342.7,408.41,389.47A8.032,8.032,0,0,0,408,392v88H360V378.667L406.4,316.8A8.006,8.006,0,0,0,408,312V280a8.032,8.032,0,0,0-.41-2.53L395.1,240h9.37a8,8,0,0,1,7.591,5.469L424,281.3ZM256,480a56,56,0,1,1,56-56A56.063,56.063,0,0,1,256,480ZM152,96H368V264a55.744,55.744,0,0,1-13.028,35.86,24.18,24.18,0,0,0-7.112,7.112A55.744,55.744,0,0,1,312,320H200a55.744,55.744,0,0,1-35.86-13.028,24.18,24.18,0,0,0-7.112-7.112A55.744,55.744,0,0,1,144,264V95.545A72.383,72.383,0,0,0,152,96ZM416,200a39.728,39.728,0,0,1-8.195,24.245A24.219,24.219,0,0,0,404.47,224H384V160.805A40.068,40.068,0,0,1,416,200ZM360.544,317.123q2.391-2.185,4.579-4.579A7.951,7.951,0,0,1,368,312h8v18.666L360,352V320A7.951,7.951,0,0,1,360.544,317.123ZM384,296h-7.528A71.537,71.537,0,0,0,384,264v-6.7l8,24V304A8,8,0,0,0,384,296ZM296.581,32h23.876a71.989,71.989,0,0,0,25.919,47.718A56.1,56.1,0,0,1,296.581,32Zm9.883,47.724A56.1,56.1,0,0,1,256.581,32h23.874A71.95,71.95,0,0,0,306.464,79.724Zm-40,0A56.1,56.1,0,0,1,216.581,32h23.874A71.95,71.95,0,0,0,266.464,79.724Zm-40,0A56.1,56.1,0,0,1,176.581,32h23.874A71.95,71.95,0,0,0,226.464,79.724Zm-40,0A56.1,56.1,0,0,1,136.581,32h23.874A71.95,71.95,0,0,0,186.464,79.724ZM256,352a71.58,71.58,0,0,0-40,12.167V336h80v28.167A71.58,71.58,0,0,0,256,352ZM135.528,296H128a8,8,0,0,0-8,8V281.3l8-24V264A71.537,71.537,0,0,0,135.528,296ZM136,312h8a7.951,7.951,0,0,1,2.877.544q2.187,2.391,4.579,4.579A7.951,7.951,0,0,1,152,320v32l-16-21.334Zm32,16.472A71.537,71.537,0,0,0,200,336v32H168ZM312,336a71.537,71.537,0,0,0,32-7.528V368H312Zm88-232v45.414a55.52,55.52,0,0,0-16-4.833V72A40.089,40.089,0,0,1,400,104ZM368,56V74.612A55.979,55.979,0,0,1,336.581,32H344A24.028,24.028,0,0,1,368,56ZM96.569,32h23.886a71.957,71.957,0,0,0,26.006,47.722A56.113,56.113,0,0,1,96.569,32ZM128,91.872v52.709a55.52,55.52,0,0,0-16,4.833V104a39.976,39.976,0,0,1,4.091-17.634A71.754,71.754,0,0,0,128,91.872Zm0,68.933V224H107.53a24.208,24.208,0,0,0-3.335.245A39.992,39.992,0,0,1,128,160.805ZM88,281.3l11.938-35.824A8,8,0,0,1,107.53,240h9.37l-12.49,37.47A8.032,8.032,0,0,0,104,280v32a8.006,8.006,0,0,0,1.6,4.8L152,378.667V480H104V392a8.032,8.032,0,0,0-.41-2.53L88,342.7ZM72,440a55.68,55.68,0,0,1,16-39.214V480H72Zm96,40V384h28.167a71.864,71.864,0,0,0,14.648,96Zm160-56a71.58,71.58,0,0,0-12.167-40H344v96H301.185A71.883,71.883,0,0,0,328,424Zm112,56H424V400.786A55.68,55.68,0,0,1,440,440Z"/><path d="M168,152h48a8,8,0,0,0,0-16H168a8,8,0,0,0,0,16Z"/><path d="M296,152h48a8,8,0,0,0,0-16H296a8,8,0,0,0,0,16Z"/><path d="M224,192a24,24,0,1,0-24,24A24.028,24.028,0,0,0,224,192Zm-24,8a8,8,0,1,1,8-8A8.009,8.009,0,0,1,200,200Z"/><path d="M280,216a8,8,0,0,0-16,0,8,8,0,0,1-16,0,8,8,0,0,0-16,0,24,24,0,0,0,48,0Z"/><path d="M312,216a24,24,0,1,0-24-24A24.028,24.028,0,0,0,312,216Zm0-32a8,8,0,1,1-8,8A8.009,8.009,0,0,1,312,184Z"/><path d="M216,280a8,8,0,0,0,16,0,24,24,0,0,1,48,0,8,8,0,0,0,16,0,40,40,0,0,0-80,0Z"/><path d="M285.657,394.343a8,8,0,0,0-11.314,0L256,412.686l-18.343-18.343a8,8,0,0,0-11.314,11.314L244.686,424l-18.343,18.343a8,8,0,0,0,11.314,11.314L256,435.314l18.343,18.343a8,8,0,0,0,11.314-11.314L267.314,424l18.343-18.343A8,8,0,0,0,285.657,394.343Z"/></svg>
