<svg id="Capa_1" enable-background="new 0 0 512 512" height="512" viewBox="0 0 512 512" width="512" xmlns="http://www.w3.org/2000/svg"><g><path d="m384.429 480.152h127.571v-320.72h-147.587z" fill="#fff5f5"/><path d="m127.571 480.152h-127.571v-320.72h147.587z" fill="#e1ebf0"/><path d="m384.429 31.848h-128.429l-20.016 428.288 99.747 20.016h48.698z" fill="#e1ebf0"/><path d="m127.571 31.848v448.304h48.697l79.732-20.016v-428.288z" fill="#fff5f5"/><path d="m47.839 272.002h31.893v30h-31.893z" fill="#07485e"/><path d="m47.839 335.788h31.893v30h-31.893z" fill="#07485e"/><path d="m432.269 272.002h31.893v30h-31.893z" fill="#0b799d"/><path d="m47.839 208.217h31.893v30h-31.893z" fill="#07485e"/><g fill="#0b799d"><path d="m432.269 208.217h31.893v30h-31.893z"/><path d="m432.269 335.788h31.893v30h-31.893z"/><path d="m240.054 208.217h31.893v30h-31.893z"/><path d="m176.268 208.217h31.893v30h-31.893z"/></g><path d="m303.839 208.217h31.893v30h-31.893z" fill="#07485e"/><path d="m240.054 272.002h31.893v30h-31.893z" fill="#0b799d"/><path d="m176.268 272.002h31.893v30h-31.893z" fill="#0b799d"/><path d="m303.839 272.002h31.893v30h-31.893z" fill="#07485e"/><path d="m240.054 335.788h31.893v30h-31.893z" fill="#0b799d"/><path d="m176.268 335.788h31.893v30h-31.893z" fill="#0b799d"/><path d="m303.839 335.788h31.893v30h-31.893z" fill="#07485e"/><path d="m335.731 399.573h-79.731l-20.016 60.563 69.723 20.016h30.024z" fill="#b4d2d7"/><path d="m176.268 399.573v80.579h30.024l49.708-20.016v-60.563z" fill="#e1ebf0"/><path d="m305.707 429.598h-49.707l-20.016 25.277 20.016 25.277h49.707z" fill="#07485e"/><path d="m206.292 429.598h49.708v50.554h-49.708z" fill="#0b799d"/><path d="m271 142.577h32.839v-30h-32.839v-32.839h-15l-10.008 47.839 10.008 47.84h15z" fill="#e50058"/><path d="m241 79.738v32.839h-32.839v30h32.839v32.84h15v-95.679z" fill="#ff415b"/></g></svg>