<svg id="filled_outline" height="512" viewBox="0 0 512 512" width="512" xmlns="http://www.w3.org/2000/svg" data-name="filled outline"><path d="m288 32h-16v16h-16v16h16v16h16v-16h16v-16h-16z" fill="#66c3ea"/><path d="m360 80h-16v-16h-16v16h-16v16h16v16h16v-16h16z" fill="#66c3ea"/><circle cx="424" cy="328" fill="#66c3ea" r="16"/><circle cx="376" cy="376" fill="#66c3ea" r="24"/><path d="m64 384a56 56 0 0 1 56 56 40 40 0 0 1 40 40v8h-136v-144h24a56 56 0 0 1 56 56" fill="#306bb4"/><path d="m488 388v100h-112v-8a40 40 0 0 1 40-40 32 32 0 0 1 32-32v-20a20 20 0 0 1 20-20 20 20 0 0 1 20 20z" fill="#306bb4"/><path d="m48 424h16v16h-16z" fill="#66c3ea"/><path d="m72 448h16v16h-16z" fill="#66c3ea"/><path d="m440 448h16v16h-16z" fill="#66c3ea"/><path d="m248.313 140.561-16.313 179.439h-160l-16.313-179.439z" fill="#9fc83e"/><path d="m55.688 140.561 1.039 11.439h7.206c90.587 0 161.621 77.784 153.42 168h14.647l16.312-179.439z" fill="#c6de3a"/><path d="m90.033 164.361-2.164-23.8h-32.181l16.312 179.439h160l2.182-24a144.743 144.743 0 0 1 -144.149-131.639z" fill="#75ae43"/><path d="m240 232h-176l1.455 16h173.09z" fill="#75ae43"/><path d="m80 200h-56a8 8 0 0 1 -7.155-11.578l28-56 14.31 7.156-22.211 44.422h38.112l25.789-51.578 14.31 7.156-28 56a8 8 0 0 1 -7.155 4.422z" fill="#cf7e2c"/><path d="m224.922 203.029h294.156v33.941h-294.156z" fill="#cf7e2c" transform="matrix(.707 -.707 .707 .707 -46.607 327.48)"/><path d="m120 296h176a0 0 0 0 1 0 0v176a0 0 0 0 1 0 0 176 176 0 0 1 -176-176 0 0 0 0 1 0 0z" fill="#efad15"/><path d="m276 296v156a175.292 175.292 0 0 1 -114.043-41.957 175.6 175.6 0 0 0 134.043 61.957v-176z" fill="#fec941"/><path d="m272 296 24 24h9.373a54.626 54.626 0 0 0 38.627-16l-56-56a54.626 54.626 0 0 0 -16 38.627z" fill="#efad15"/><path d="m288 248a54.616 54.616 0 0 0 -8.673 11.327l34.673 34.673a54.615 54.615 0 0 1 -28.89 15.11l10.89 10.89h9.373a54.626 54.626 0 0 0 38.627-16z" fill="#fec941"/><path d="m210.343 362.343-48.072 48.071q5.211 6.086 10.955 11.674l48.431-48.431z" fill="#fed54d"/><path d="m181.8 320.308-57.084 16.309q1.851 7.834 4.384 15.388l57.1-16.313z" fill="#fed54d"/><path d="m248.062 391.008-8.949 71.59q7.627 2.6 15.561 4.51l9.264-74.116z" fill="#fed54d"/><path d="m248 112h-8a31.991 31.991 0 0 0 -51.836-25.1 40.006 40.006 0 0 0 -72.328 0 31.991 31.991 0 0 0 -51.836 25.1h-8a16 16 0 0 0 -16 16 16 16 0 0 0 16 16h64v48a16 16 0 0 0 32 0v-48h32v32a16 16 0 0 0 32 0v-32h32a16 16 0 0 0 16-16 16 16 0 0 0 -16-16z" fill="#66c3ea"/><g fill="#9fd9f1"><path d="m86 90a31.852 31.852 0 0 1 19.836 6.9 40.081 40.081 0 0 1 8.1-11.389 31.974 31.974 0 0 0 -45 9.425 31.842 31.842 0 0 1 17.064-4.936z"/><path d="m248 112h-8a31.991 31.991 0 0 0 -51.836-25.1 39.978 39.978 0 0 0 -68.984-5.723 39.962 39.962 0 0 1 58.984 15.723 31.991 31.991 0 0 1 51.836 25.1h8a16 16 0 0 1 16 16 15.964 15.964 0 0 1 -.859 5.141 16 16 0 0 0 10.859-15.141 16 16 0 0 0 -16-16z"/><path d="m142 144v58a15.964 15.964 0 0 1 -.859 5.141 16 16 0 0 0 10.859-15.141v-48z"/><path d="m206 144v42a15.964 15.964 0 0 1 -.859 5.141 16 16 0 0 0 10.859-15.141v-32z"/><path d="m144 128a8 8 0 0 1 -8-8 8 8 0 0 0 -16 0h-16a23.992 23.992 0 0 1 35.774-20.908 24 24 0 0 1 44.226 12.908h-16a8 8 0 0 0 -16 0v8a8 8 0 0 1 -8 8z"/></g><path d="m469.657 98.343a8 8 0 0 0 -11.314 0l-154.343 154.343-10.343-10.343a8 8 0 0 0 -11.313 0 62.214 62.214 0 0 0 -18.344 44.284v1.373h-21.059l12.471-137.177a24 24 0 0 0 -7.412-46.823h-.8a40.071 40.071 0 0 0 -39.2-32 39.632 39.632 0 0 0 -17.139 3.842 47.976 47.976 0 0 0 -77.722 0 39.632 39.632 0 0 0 -17.139-3.842 40.071 40.071 0 0 0 -39.2 32h-.8a23.982 23.982 0 0 0 -17.266 40.644l-21.889 43.778a8 8 0 0 0 7.155 11.578h29.058l10.975 120.724a8 8 0 0 0 7.967 7.276h24v-16h-16.694l-5.819-64h30.513v-16h-31.967l-2.909-32h10.876a8 8 0 0 0 7.155-4.422l21.789-43.578h3.056v40a24 24 0 0 0 48 0v-40h16v24a24 24 0 0 0 48 0v-24h15.24l-12.364 136h-106.876a8 8 0 0 0 -8 8c0 101.458 82.542 184 184 184a8 8 0 0 0 8-8v-144h1.373a62.214 62.214 0 0 0 44.283-18.343 8 8 0 0 0 0-11.314l-10.342-10.343 154.343-154.343a8 8 0 0 0 0-11.314zm-432.713 85.657 12.4-24.809 2.256 24.809zm38.112 0h-7.387l-2.909-32h26.3zm140.944-48a8 8 0 0 0 -8 8v32a8 8 0 0 1 -16 0v-32a8 8 0 0 0 -8-8h-32a8 8 0 0 0 -8 8v48a8 8 0 0 1 -16 0v-48a8 8 0 0 0 -8-8h-64a8 8 0 0 1 0-16h8a8 8 0 0 0 8-8 24.027 24.027 0 0 1 24-24 23.743 23.743 0 0 1 14.872 5.173 8 8 0 0 0 12.193-2.849 32.007 32.007 0 0 1 57.87 0 8 8 0 0 0 12.193 2.849 23.743 23.743 0 0 1 14.872-5.173 24.027 24.027 0 0 1 24 24 8 8 0 0 0 8 8h8a8 8 0 0 1 0 16zm39.675 323.1 8.263-66.11-15.876-1.984-7.929 63.433a168.3 168.3 0 0 1 -61.2-38.062l42.722-42.722-11.314-11.314-42.341 42.345a168.01 168.01 0 0 1 -31.162-54.89l49.361-14.1-4.4-15.384-49.363 14.1a167.5 167.5 0 0 1 -4.248-30.412h140.5l19.312 19.314v140.5a167.418 167.418 0 0 1 -32.325-4.714zm49.7-147.1h-6.06l-19.315-19.313v-6.06a46.293 46.293 0 0 1 8.48-26.833l43.726 43.726a46.288 46.288 0 0 1 -26.833 8.48zm22.625-35.314-12.686-12.686 148.686-148.686 12.687 12.686z"/><path d="m288 80v-16h16v-16h-16v-16h-16v16h-16v16h16v16z"/><path d="m344 112v-16h16v-16h-16v-16h-16v16h-16v16h16v16z"/><path d="m448 328a24 24 0 1 0 -24 24 24.027 24.027 0 0 0 24-24zm-32 0a8 8 0 1 1 8 8 8.009 8.009 0 0 1 -8-8z"/><path d="m376 344a32 32 0 1 0 32 32 32.036 32.036 0 0 0 -32-32zm0 48a16 16 0 1 1 16-16 16.019 16.019 0 0 1 -16 16z"/><path d="m24 496h136a8 8 0 0 0 8-8v-8a48.076 48.076 0 0 0 -40.426-47.4 63.769 63.769 0 0 0 -15.616-34.933 64.078 64.078 0 0 0 -63.958-61.667h-24a8 8 0 0 0 -8 8v144a8 8 0 0 0 8 8zm8-144h16a48.088 48.088 0 0 1 44.848 30.878 63.613 63.613 0 0 0 -28.848-6.878v16a48.054 48.054 0 0 1 48 48 8 8 0 0 0 8 8 32.036 32.036 0 0 1 32 32h-120z"/><path d="m468 360a28.032 28.032 0 0 0 -28 28v12.8a40.118 40.118 0 0 0 -31.306 31.751 48.076 48.076 0 0 0 -40.694 47.449v8a8 8 0 0 0 8 8h112a8 8 0 0 0 8-8v-100a28.032 28.032 0 0 0 -28-28zm12 120h-96a32.036 32.036 0 0 1 32-32 8 8 0 0 0 8-8 24.027 24.027 0 0 1 24-24 8 8 0 0 0 8-8v-20a12 12 0 0 1 24 0z"/><path d="m48 424h16v16h-16z"/><path d="m72 448h16v16h-16z"/><path d="m440 448h16v16h-16z"/><path d="m120 232h16v16h-16z"/><path d="m160 88a24 24 0 0 0 -20.226 11.092 23.992 23.992 0 0 0 -35.774 20.908h16a8 8 0 0 1 16 0 8 8 0 0 0 16 0v-8a8 8 0 0 1 16 0h16a24.028 24.028 0 0 0 -24-24z"/></svg>